<?xml version="1.0" encoding="UTF-8"?>
<!DOCTYPE svg PUBLIC "-//W3C//DTD SVG 1.1//EN" "http://www.w3.org/Graphics/SVG/1.1/DTD/svg11.dtd">
<!-- Creator: CorelDRAW -->
<svg xmlns="http://www.w3.org/2000/svg" xml:space="preserve" width="130mm" height="130mm" version="1.1" style="shape-rendering:geometricPrecision; text-rendering:geometricPrecision; image-rendering:optimizeQuality; fill-rule:evenodd; clip-rule:evenodd"
viewBox="0 0 13000 13000"
 xmlns:xlink="http://www.w3.org/1999/xlink"
 xmlns:xodm="http://www.corel.com/coreldraw/odm/2003">
 <defs>
  <style type="text/css">
   <![CDATA[
    .fil0 {fill:#0282D4}
    .fil1 {fill:#FEA629}
   ]]>
  </style>
 </defs>
 <g id="Capa_x0020_1">
  <metadata id="CorelCorpID_0Corel-Layer"/>
  <g id="_45661552128">
   <path class="fil0" d="M9105.02 11612.31c-5.36,-4.45 -12.4,-10.26 -16.12,-13.28l-31.42 -25.72c-388.52,-308.8 -1258.82,-651.95 -1746.04,-746.15 -107.84,-20.85 -696.4,-101.65 -733.09,-119.73 -480.74,0 -1188.69,-151.58 -1617.45,-319.2 -371.55,-145.25 -928.44,-454.99 -1205.1,-730.33 -233.31,-232.19 -139.88,-102.38 -477.34,-477.81 -500.04,-556.3 -772.78,-1315.75 -885.29,-2055.55 -159.94,-1051.68 207.44,-2214.81 832.97,-2985.43 529.33,-652.13 1229.63,-1132.46 2053.59,-1339.7 143.09,-36 282.3,-53.52 417.66,-85.05 0,298.25 50.26,541.25 50.26,829.47 130.86,-10.89 1809.12,-904.56 2211.93,-1105.96l754.06 -377.03c-36.36,-136.18 -461.77,-472.7 -593.15,-563.09 -657.72,-452.48 -1201.49,-734.14 -2039.61,-901.23 -150.16,-29.93 -351.89,-57.44 -509.17,-94.08 17.78,213.71 50.27,410.31 50.27,653.52 -197,0 -479.35,69.57 -668.31,110.89 -1092.93,239 -1930.31,795.57 -2706.15,1566.88 -771.34,766.86 -1215.6,1806.95 -1412.15,2886.01 -162.23,890.63 -42.67,1901.79 240.02,2747.71 223.98,670.24 553.18,1203.91 980.88,1733.75 71.83,88.99 121.27,129.76 190.15,212.02 154.77,184.85 395.02,414.27 588.77,567.46 1135.93,898.06 2287.63,1276.87 3792.54,1285.48 756.34,4.33 1874.35,-283.28 2477.29,-653.85z"/>
   <path class="fil1" d="M6578.35 10707.43c36.69,18.08 625.25,98.88 733.09,119.73 487.22,94.2 1357.52,437.35 1746.04,746.15l31.42 25.72c3.72,3.02 10.76,8.83 16.12,13.28 269.45,-86.38 959.82,-614.31 1198.16,-848.61 27.49,-27.03 37.7,-35.64 65.1,-60.56 1608.35,-1463.1 2230.98,-3781.36 1440.23,-5981.16 -221.13,-615.18 -542.07,-1146.94 -929.92,-1633.89 -90.48,-113.59 -146.23,-175.35 -248.87,-278.98l-251.17 -251.54c-349.24,-322.07 -451.68,-404.04 -875.25,-683.15 -219.67,-144.74 -458.49,-244.53 -689.12,-366.56 24.76,92.72 173.61,248.24 236.78,341.33 45.04,66.37 60.26,104.32 104.78,171.72 46.3,70.09 89.31,109.96 110.88,190.74l-1307.04 678.66c385.63,89.84 820.42,411.91 1138.32,646.29 1081.13,797.11 1672.53,2492.66 1364.77,3867.64 -298.69,1334.46 -1160.81,2440.29 -2412.98,2965.99 -386.44,162.24 -1034.33,337.2 -1471.34,337.2z"/>
  </g>
 </g>
</svg>
